<svg width="100" height="100" viewBox="0 0 100 100" fill="none" xmlns="http://www.w3.org/2000/svg">
  <line x1="60" y1="20" x2="85" y2="35" stroke="currentColor" stroke-width="2.5" stroke-linecap="round"/>
  <line x1="60" y1="20" x2="70" y2="45" stroke="currentColor" stroke-width="2.5" stroke-linecap="round"/>
  <line x1="95" y1="60" x2="70" y2="45" stroke="currentColor" stroke-width="2.5" stroke-linecap="round"/>
  <line x1="30" y1="75" x2="40" y2="45" stroke="currentColor" stroke-width="2.5" stroke-linecap="round"/>
  <line x1="40" y1="45" x2="55" y2="60" stroke="currentColor" stroke-width="2.5" stroke-linecap="round"/>
  <line x1="15" y1="55" x2="40" y2="45" stroke="currentColor" stroke-width="2.5" stroke-linecap="round"/>
  <line x1="80" y1="95" x2="55" y2="60" stroke="currentColor" stroke-width="2.5" stroke-linecap="round"/>
  <line x1="85" y1="35" x2="95" y2="60" stroke="currentColor" stroke-width="2.5" stroke-linecap="round"/>
  <line x1="60" y1="20" x2="40" y2="45" stroke="currentColor" stroke-width="2.5" stroke-linecap="round"/>
  <line x1="95" y1="60" x2="80" y2="95" stroke="currentColor" stroke-width="2.5" stroke-linecap="round"/>
  <line x1="30" y1="75" x2="55" y2="60" stroke="currentColor" stroke-width="2.5" stroke-linecap="round"/>
  <line x1="40" y1="45" x2="70" y2="45" stroke="currentColor" stroke-width="2.5" stroke-linecap="round"/>
  <line x1="15" y1="55" x2="30" y2="25" stroke="currentColor" stroke-width="2.5" stroke-linecap="round"/>
  <line x1="70" y1="45" x2="55" y2="60" stroke="currentColor" stroke-width="2.5" stroke-linecap="round"/>
  <line x1="15" y1="55" x2="30" y2="75" stroke="currentColor" stroke-width="2.5" stroke-linecap="round"/>
  <line x1="80" y1="95" x2="55" y2="80" stroke="currentColor" stroke-width="2.5" stroke-linecap="round"/>
  <line x1="80" y1="95" x2="70" y2="45" stroke="currentColor" stroke-width="2.5" stroke-linecap="round"/>
  <line x1="85" y1="35" x2="70" y2="45" stroke="currentColor" stroke-width="2.5" stroke-linecap="round"/>
  <line x1="30" y1="25" x2="60" y2="20" stroke="currentColor" stroke-width="2.5" stroke-linecap="round"/>
  <line x1="30" y1="25" x2="40" y2="45" stroke="currentColor" stroke-width="2.5" stroke-linecap="round"/>
  <line x1="55" y1="80" x2="55" y2="60" stroke="currentColor" stroke-width="2.5" stroke-linecap="round"/>
  <line x1="55" y1="80" x2="30" y2="75" stroke="currentColor" stroke-width="2.5" stroke-linecap="round"/>
  <circle cx="15" cy="55" r="3.5" fill="currentColor"/>
  <circle cx="30" cy="25" r="3.5" fill="currentColor"/>
  <circle cx="60" cy="20" r="3.5" fill="currentColor"/>
  <circle cx="85" cy="35" r="3.5" fill="currentColor"/>
  <circle cx="95" cy="60" r="3.5" fill="currentColor"/>
  <circle cx="80" cy="95" r="3.5" fill="currentColor"/>
  <circle cx="55" cy="80" r="3.5" fill="currentColor"/>
  <circle cx="30" cy="75" r="3.5" fill="currentColor"/>
  <circle cx="40" cy="45" r="3.5" fill="currentColor"/>
  <circle cx="70" cy="45" r="3.5" fill="currentColor"/>
  <circle cx="55" cy="60" r="3.5" fill="currentColor"/>
</svg>
