<svg width="36" height="36" viewBox="0 0 36 36" fill="none" xmlns="http://www.w3.org/2000/svg">
  <line x1="24.0" y1="6.0" x2="22.0" y2="18.0" stroke="#000000" stroke-width="1.8" stroke-linecap="round"/>
  <line x1="4.0" y1="16.0" x2="10.0" y2="4.0" stroke="#000000" stroke-width="1.8" stroke-linecap="round"/>
  <line x1="24.0" y1="6.0" x2="32.0" y2="18.0" stroke="#000000" stroke-width="1.8" stroke-linecap="round"/>
  <line x1="28.0" y1="32.0" x2="22.0" y2="18.0" stroke="#000000" stroke-width="1.8" stroke-linecap="round"/>
  <line x1="10.0" y1="24.0" x2="22.0" y2="18.0" stroke="#000000" stroke-width="1.8" stroke-linecap="round"/>
  <line x1="4.0" y1="16.0" x2="22.0" y2="18.0" stroke="#000000" stroke-width="1.8" stroke-linecap="round"/>
  <line x1="10.0" y1="4.0" x2="24.0" y2="6.0" stroke="#000000" stroke-width="1.8" stroke-linecap="round"/>
  <line x1="32.0" y1="18.0" x2="28.0" y2="32.0" stroke="#000000" stroke-width="1.8" stroke-linecap="round"/>
  <line x1="28.0" y1="32.0" x2="10.0" y2="24.0" stroke="#000000" stroke-width="1.8" stroke-linecap="round"/>
  <line x1="32.0" y1="18.0" x2="22.0" y2="18.0" stroke="#000000" stroke-width="1.8" stroke-linecap="round"/>
  <line x1="4.0" y1="16.0" x2="10.0" y2="24.0" stroke="#000000" stroke-width="1.8" stroke-linecap="round"/>
  <line x1="10.0" y1="4.0" x2="22.0" y2="18.0" stroke="#000000" stroke-width="1.8" stroke-linecap="round"/>

  <circle cx="4.0" cy="16.0" r="3.2" fill="#000000"/>
  <circle cx="10.0" cy="4.0" r="3.2" fill="#000000"/>
  <circle cx="24.0" cy="6.0" r="3.2" fill="#000000"/>
  <circle cx="32.0" cy="18.0" r="3.2" fill="#000000"/>
  <circle cx="28.0" cy="32.0" r="3.2" fill="#000000"/>
  <circle cx="10.0" cy="24.0" r="3.2" fill="#000000"/>
  <circle cx="22.0" cy="18.0" r="3.2" fill="#000000"/>


</svg>